<?xml version="1.0" encoding="UTF-8"?>
<svg xmlns="http://www.w3.org/2000/svg" xmlns:xlink="http://www.w3.org/1999/xlink" width="36px" height="25px" viewBox="0 0 36 25" version="1.1">
<g id="surface1">
<path style=" stroke:none;fill-rule:nonzero;fill:rgb(99.607843%,99.607843%,99.607843%);fill-opacity:1;" d="M 7.566406 2.226562 C 8.277344 1.371094 9.054688 0.453125 10.144531 0.0976562 C 11.375 -0.230469 12.414062 0.746094 13.1875 1.570312 C 15.210938 3.894531 16.679688 6.644531 18.050781 9.390625 C 18.796875 7.722656 19.710938 6.128906 20.671875 4.574219 C 21.589844 3.171875 22.53125 1.738281 23.84375 0.671875 C 24.453125 0.203125 25.300781 -0.242188 26.058594 0.148438 C 27.128906 0.722656 27.945312 1.667969 28.703125 2.597656 C 30.320312 4.6875 31.589844 7.023438 32.730469 9.398438 C 34.160156 12.457031 35.398438 15.648438 35.921875 19.003906 C 36.074219 20.554688 36.214844 22.300781 35.28125 23.648438 C 34.5625 24.707031 33.1875 25.074219 31.976562 24.863281 C 30.917969 24.492188 29.996094 23.796875 29.304688 22.914062 C 27.664062 20.871094 26.6875 18.402344 25.78125 15.96875 C 25.644531 15.542969 25.484375 15.125 25.339844 14.703125 C 25.246094 15.132812 25.125 15.5625 24.988281 15.980469 C 24.0625 18.453125 23.074219 20.964844 21.382812 23.019531 C 20.703125 23.859375 19.808594 24.5 18.796875 24.867188 C 17.335938 25.171875 15.921875 24.402344 14.976562 23.328125 C 13.132812 21.304688 12.105469 18.699219 11.15625 16.164062 C 10.972656 15.644531 10.789062 15.121094 10.65625 14.585938 C 10.511719 15.128906 10.324219 15.660156 10.128906 16.1875 C 9.28125 18.53125 8.304688 20.875 6.757812 22.847656 C 5.917969 23.859375 4.816406 24.851562 3.445312 24.917969 C 2.179688 25.027344 0.945312 24.207031 0.464844 23.042969 C -0.226562 21.429688 -0.0234375 19.609375 0.285156 17.929688 C 0.941406 14.71875 2.167969 11.652344 3.601562 8.714844 C 4.730469 6.445312 5.988281 4.21875 7.566406 2.226562 M 8.285156 2.933594 C 6.722656 4.941406 5.480469 7.175781 4.363281 9.457031 C 2.972656 12.402344 1.71875 15.472656 1.179688 18.703125 C 0.992188 19.597656 0.984375 20.53125 1.085938 21.4375 C 1.191406 22.292969 1.527344 23.214844 2.3125 23.65625 C 3.0625 24.097656 4.023438 23.921875 4.710938 23.433594 C 5.929688 22.578125 6.742188 21.273438 7.441406 19.980469 C 8.941406 17.09375 9.925781 13.96875 10.671875 10.808594 C 11.460938 14.046875 12.460938 17.265625 14.039062 20.207031 C 14.664062 21.296875 15.328125 22.429688 16.355469 23.183594 C 16.871094 23.648438 17.558594 23.976562 18.265625 23.898438 C 19.054688 23.816406 19.722656 23.3125 20.269531 22.769531 C 21.21875 21.789062 21.90625 20.589844 22.511719 19.378906 C 23.808594 16.703125 24.707031 13.855469 25.410156 10.96875 C 26.28125 14.460938 27.367188 17.957031 29.230469 21.050781 C 29.929688 22.132812 30.753906 23.257812 31.984375 23.761719 C 32.851562 24.117188 33.941406 23.804688 34.4375 22.992188 C 35.039062 22.027344 35.082031 20.824219 34.992188 19.71875 C 34.871094 17.929688 34.347656 16.203125 33.785156 14.511719 C 32.652344 11.242188 31.15625 8.113281 29.335938 5.175781 C 28.492188 3.867188 27.617188 2.550781 26.441406 1.519531 C 26.023438 1.152344 25.40625 0.796875 24.878906 1.167969 C 23.867188 1.785156 23.160156 2.78125 22.460938 3.722656 C 20.734375 6.191406 19.308594 8.878906 18.144531 11.660156 C 18.109375 11.703125 18.035156 11.785156 18 11.828125 C 17.90625 11.511719 17.792969 11.203125 17.660156 10.898438 C 16.464844 8.300781 15.132812 5.746094 13.441406 3.429688 C 12.863281 2.667969 12.269531 1.890625 11.484375 1.328125 C 11.152344 1.085938 10.707031 0.878906 10.308594 1.082031 C 9.460938 1.472656 8.867188 2.234375 8.289062 2.933594 Z M 8.285156 2.933594 "/>
<path style=" stroke:none;fill-rule:nonzero;fill:rgb(61.960784%,14.117647%,18.039216%);fill-opacity:1;" d="M 8.289062 2.933594 C 8.867188 2.234375 9.460938 1.472656 10.304688 1.082031 C 10.707031 0.878906 11.152344 1.085938 11.484375 1.328125 C 12.265625 1.890625 12.859375 2.671875 13.441406 3.429688 C 15.128906 5.746094 16.464844 8.300781 17.660156 10.902344 C 17.792969 11.203125 17.90625 11.511719 18 11.828125 C 16.445312 9.164062 15.019531 6.398438 13.070312 3.996094 C 12.5 3.328125 11.90625 2.609375 11.078125 2.253906 C 10.609375 2.054688 10.132812 2.316406 9.75 2.574219 C 8.347656 3.75 7.320312 5.292969 6.339844 6.824219 C 4.050781 10.507812 2.3125 14.511719 1.179688 18.703125 C 1.714844 15.472656 2.972656 12.402344 4.367188 9.457031 C 5.480469 7.175781 6.722656 4.941406 8.289062 2.933594 Z M 8.289062 2.933594 "/>
<path style=" stroke:none;fill-rule:nonzero;fill:rgb(61.960784%,14.117647%,18.039216%);fill-opacity:1;" d="M 24.878906 1.167969 C 25.40625 0.796875 26.023438 1.152344 26.441406 1.519531 C 27.613281 2.550781 28.488281 3.867188 29.335938 5.175781 C 31.15625 8.113281 32.652344 11.242188 33.785156 14.511719 C 34.351562 16.199219 34.875 17.929688 34.992188 19.71875 C 34.796875 18.476562 34.480469 17.25 34.058594 16.066406 C 32.972656 12.808594 31.503906 9.691406 29.683594 6.785156 C 28.894531 5.535156 28.050781 4.308594 27.035156 3.238281 C 26.621094 2.835938 26.1875 2.40625 25.628906 2.222656 C 25.195312 2.089844 24.796875 2.398438 24.445312 2.613281 C 23.507812 3.355469 22.769531 4.316406 22.074219 5.28125 C 20.835938 7.042969 19.734375 8.902344 18.734375 10.808594 C 18.570312 11.113281 18.371094 11.398438 18.140625 11.660156 C 19.308594 8.878906 20.730469 6.191406 22.457031 3.71875 C 23.160156 2.78125 23.867188 1.785156 24.878906 1.167969 Z M 24.878906 1.167969 "/>
<path style=" stroke:none;fill-rule:nonzero;fill:rgb(100%,56.862745%,18.039216%);fill-opacity:1;" d="M 9.75 2.574219 C 10.136719 2.316406 10.609375 2.054688 11.078125 2.253906 C 11.90625 2.609375 12.5 3.328125 13.070312 3.996094 C 15.019531 6.398438 16.445312 9.164062 18 11.828125 C 17.023438 14.605469 15.871094 17.40625 15.800781 20.394531 C 15.75 21.359375 16.003906 22.296875 16.355469 23.183594 C 15.328125 22.429688 14.664062 21.296875 14.039062 20.207031 C 12.460938 17.265625 11.460938 14.046875 10.671875 10.808594 C 10.097656 8.105469 9.570312 5.351562 9.75 2.574219 Z M 9.75 2.574219 "/>
<path style=" stroke:none;fill-rule:nonzero;fill:rgb(95.686275%,10.980392%,69.803922%);fill-opacity:1;" d="M 24.445312 2.613281 C 24.796875 2.398438 25.191406 2.09375 25.628906 2.226562 C 26.1875 2.410156 26.621094 2.835938 27.035156 3.242188 C 28.050781 4.3125 28.894531 5.539062 29.683594 6.785156 C 31.503906 9.695312 32.972656 12.808594 34.058594 16.066406 C 34.480469 17.253906 34.796875 18.476562 34.992188 19.71875 C 35.082031 20.824219 35.039062 22.027344 34.4375 22.992188 C 33.941406 23.808594 32.851562 24.117188 31.984375 23.761719 C 30.753906 23.257812 29.929688 22.132812 29.230469 21.050781 C 27.367188 17.957031 26.28125 14.460938 25.410156 10.96875 C 24.8125 8.230469 24.265625 5.429688 24.445312 2.613281 Z M 24.445312 2.613281 "/>
<path style=" stroke:none;fill-rule:nonzero;fill:rgb(95.686275%,10.980392%,69.803922%);fill-opacity:1;" d="M 6.339844 6.824219 C 7.320312 5.292969 8.347656 3.75 9.75 2.574219 C 9.570312 5.351562 10.097656 8.105469 10.671875 10.808594 C 9.925781 13.96875 8.9375 17.09375 7.441406 19.980469 C 6.738281 21.273438 5.929688 22.578125 4.710938 23.433594 C 4.023438 23.921875 3.058594 24.097656 2.3125 23.65625 C 1.527344 23.214844 1.191406 22.292969 1.082031 21.4375 C 0.988281 20.53125 0.992188 19.597656 1.179688 18.703125 C 2.3125 14.511719 4.050781 10.507812 6.339844 6.824219 Z M 6.339844 6.824219 "/>
<path style=" stroke:none;fill-rule:nonzero;fill:rgb(94.901961%,33.333333%,6.666667%);fill-opacity:1;" d="M 22.074219 5.28125 C 22.769531 4.316406 23.507812 3.355469 24.445312 2.613281 C 24.265625 5.429688 24.8125 8.230469 25.40625 10.96875 C 24.707031 13.855469 23.808594 16.703125 22.511719 19.378906 C 21.90625 20.59375 21.214844 21.789062 20.269531 22.769531 C 19.71875 23.3125 19.054688 23.816406 18.265625 23.898438 C 17.558594 23.976562 16.871094 23.648438 16.355469 23.183594 C 16.003906 22.296875 15.75 21.359375 15.800781 20.398438 C 15.867188 17.40625 17.023438 14.609375 17.996094 11.828125 C 18.03125 11.785156 18.105469 11.703125 18.140625 11.660156 C 18.371094 11.402344 18.570312 11.117188 18.734375 10.8125 C 19.734375 8.902344 20.835938 7.042969 22.074219 5.28125 Z M 22.074219 5.28125 "/>
</g>
</svg>
